<?xml version="1.0" encoding="UTF-8" standalone="no"?>
<svg
   version="1.1"
   width="512"
   height="512"
   id="svg2"
   sodipodi:docname="map.svg"
   inkscape:version="1.4 (86a8ad7, 2024-10-11)"
   xmlns:inkscape="http://www.inkscape.org/namespaces/inkscape"
   xmlns:sodipodi="http://sodipodi.sourceforge.net/DTD/sodipodi-0.dtd"
   xmlns="http://www.w3.org/2000/svg"
   xmlns:svg="http://www.w3.org/2000/svg">
  <defs
     id="defs2" />
  <sodipodi:namedview
     id="namedview2"
     pagecolor="#ffffff"
     bordercolor="#000000"
     borderopacity="0.25"
     inkscape:showpageshadow="2"
     inkscape:pageopacity="0.0"
     inkscape:pagecheckerboard="0"
     inkscape:deskcolor="#d1d1d1"
     inkscape:zoom="0.75488281"
     inkscape:cx="35.767141"
     inkscape:cy="93.391979"
     inkscape:window-width="1920"
     inkscape:window-height="991"
     inkscape:window-x="-9"
     inkscape:window-y="-9"
     inkscape:window-maximized="1"
     inkscape:current-layer="svg2" />
  <path
     d="M0 0 C3.88772386 3.0752187 7.58022675 6.33870631 11.23974609 9.68066406 C11.92810547 10.298125 12.61646484 10.91558594 13.32568359 11.55175781 C31.64943299 28.83909604 42.48969966 55.22485352 43.52099609 80.16503906 C44.14300799 105.7769153 38.00084796 129.87125438 26.23974609 152.68066406 C27.25294922 152.10316406 28.26615234 151.52566406 29.31005859 150.93066406 C30.66125274 150.18000065 32.01283605 149.43003742 33.36474609 148.68066406 C34.02990234 148.29910156 34.69505859 147.91753906 35.38037109 147.52441406 C36.36650391 146.98300781 36.36650391 146.98300781 37.37255859 146.43066406 C37.96955566 146.09550781 38.56655273 145.76035156 39.18164062 145.41503906 C42.912089 144.0839372 46.08989546 144.23015082 49.7590332 145.66772461 C50.58669189 146.12961182 51.41435059 146.59149902 52.26708984 147.06738281 C53.21173096 147.58671387 54.15637207 148.10604492 55.12963867 148.64111328 C56.13534912 149.21104004 57.14105957 149.7809668 58.17724609 150.36816406 C59.2377417 150.9561377 60.2982373 151.54411133 61.39086914 152.14990234 C64.68180949 153.97963884 67.96187583 155.82763157 71.23974609 157.68066406 C73.15379303 158.75751464 75.06785485 159.83433877 76.98193359 160.91113281 C80.75017879 163.03578521 84.51347906 165.16896181 88.27490234 167.30566406 C94.65911469 170.92646547 101.07235351 174.49408734 107.48974609 178.05566406 C108.602771 178.67473633 109.7157959 179.29380859 110.86254883 179.93164062 C116.19273101 182.89349073 121.52837714 185.84346747 126.88439941 188.75827026 C129.36672663 190.11024205 131.84555332 191.46856015 134.32409668 192.82745361 C136.0702492 193.78135594 137.82144457 194.72600881 139.57275391 195.67041016 C152.31061289 202.66098114 152.31061289 202.66098114 154.07373047 208.39111328 C154.85806979 211.76653699 155.4764535 215.13866536 156.05224609 218.55566406 C156.26816406 219.71453125 156.48408203 220.87339844 156.70654297 222.06738281 C158.74012401 233.36505524 158.74012401 233.36505524 158.23974609 238.68066406 C155.79375722 242.06188397 154.3467805 243.45003189 150.23974609 244.30566406 C146.04819282 243.4324238 144.87803057 242.0697481 142.23974609 238.68066406 C141.07142238 235.030112 140.49423571 231.34050386 139.92724609 227.55566406 C139.67491211 226.05326172 139.67491211 226.05326172 139.41748047 224.52050781 C138.23974609 217.35795998 138.23974609 217.35795998 138.23974609 213.68066406 C137.33224609 213.39191406 136.42474609 213.10316406 135.48974609 212.80566406 C132.23974609 211.68066406 132.23974609 211.68066406 130.42071533 210.54421997 C127.31261956 209.31356783 125.33060021 209.98888079 122.09423828 210.73876953 C120.23276154 211.15943192 120.23276154 211.15943192 118.3336792 211.58859253 C116.98459 211.90805078 115.63557225 212.2278109 114.28662109 212.54785156 C112.90255888 212.8657981 111.51821566 213.18252365 110.13360596 213.49807739 C106.49425215 214.33093934 102.85895042 215.18032444 99.22424316 216.03320312 C95.51296496 216.90095897 91.79809523 217.75303976 88.08349609 218.60644531 C80.79863963 220.28252749 73.51799259 221.9760809 66.23974609 223.68066406 C68.34491118 227.28025028 70.51652609 230.25327058 73.36474609 233.30566406 C76.59152603 236.82436593 79.68250225 240.40000075 82.67724609 244.11816406 C85.75311197 247.92153909 88.92727775 251.58149058 92.23974609 255.18066406 C96.35353518 259.65051526 100.21061906 264.27111299 104.02490234 268.99707031 C106.19607436 271.62774963 108.44215966 274.16008831 110.73974609 276.68066406 C113.83529806 280.07665088 116.79125816 283.54237937 119.67724609 287.11816406 C123.53799746 291.89206706 127.61411685 296.41454834 131.77099609 300.93066406 C134.18352713 303.61804041 136.4723082 306.3703185 138.73974609 309.18066406 C142.65231729 314.02975496 146.78044049 318.63476015 150.99755859 323.21972656 C153.5055566 325.9724073 155.894983 328.78878958 158.23974609 331.68066406 C157.64215142 324.39593823 156.53477747 317.2960097 155.17333984 310.11816406 C154.766168 307.91769332 154.35927541 305.71717089 153.95263672 303.51660156 C153.31532846 300.09306507 152.67525435 296.67010055 152.0300293 293.24804688 C151.40325508 289.91449761 150.78762689 286.57903372 150.17333984 283.24316406 C149.97961288 282.2324585 149.78588593 281.22175293 149.58628845 280.18041992 C146.68260966 264.29665327 146.68260966 264.29665327 149.80224609 259.05566406 C153.20077281 257.13854643 155.39943144 257.13204768 159.23974609 257.68066406 C162.75394082 259.99012376 163.61899663 262.47122996 164.51469421 266.4052887 C164.89840135 268.40494174 165.26468054 270.40798469 165.61743164 272.41333008 C165.82384875 273.51363084 166.03026587 274.6139316 166.24293804 275.74757481 C166.68946528 278.13983071 167.12867923 280.53346055 167.56145859 282.92824173 C168.24040298 286.68429811 168.93844806 290.43634664 169.64151001 294.18795776 C171.1828741 302.44048575 172.69203306 310.69873602 174.19677734 318.95800781 C174.47071814 320.46011919 174.74468684 321.96222548 175.01868248 323.46432686 C176.30236009 330.50326589 177.58399688 337.54257251 178.86297017 344.58236784 C180.32756716 352.64349674 181.79953478 360.70323618 183.27750951 368.76192278 C184.43028841 375.05015742 185.57629516 381.33960335 186.71727389 387.62998968 C187.39478278 391.36428099 188.07510371 395.09800469 188.76267433 398.83045769 C189.40657879 402.32677293 190.04201476 405.8245254 190.67117691 409.32352257 C191.01115684 411.20225935 191.35978547 413.07942476 191.70875549 414.95651245 C194.76882794 432.11180656 194.76882794 432.11180656 191.67724609 437.30566406 C188.29900172 439.21134038 186.10252912 438.97416404 182.23974609 438.68066406 C179.4437335 437.8238106 176.85317131 436.62464204 174.21240234 435.37597656 C173.05880219 434.85016747 173.05880219 434.85016747 171.88189697 434.31373596 C169.34965153 433.15636763 166.82620727 431.98097443 164.30224609 430.80566406 C162.51992448 429.98762356 160.73695371 429.17099609 158.95336914 428.35571289 C155.23964782 426.65683207 151.52881075 424.95186736 147.81982422 423.24267578 C139.9260309 419.61087904 131.99819535 416.05511852 124.07040405 412.49832153 C119.91850755 410.6349369 115.76872164 408.76686362 111.61865234 406.89941406 C110.0263761 406.18324842 108.43409109 405.46710226 106.84179688 404.75097656 C103.85024194 403.40538512 100.85902755 402.05904167 97.86816406 400.71191406 C94.52093341 399.20427461 91.17301936 397.69816392 87.82455444 396.19326782 C86.07223623 395.40525945 84.32064575 394.61563342 82.5690918 393.82592773 C80.46519398 392.88109592 78.35240209 391.95576035 76.23022461 391.05273438 C73.23974609 389.68066406 73.23974609 389.68066406 70.45043945 387.94140625 C66.72159897 385.81764027 63.58204853 384.2218796 59.20819092 385.07858276 C53.29848456 386.93846069 47.82442089 389.78420249 42.30224609 392.55566406 C40.50749275 393.41622277 38.71058436 394.27230046 36.91162109 395.12402344 C33.32138492 396.8290676 29.74183067 398.55377522 26.16992188 400.296875 C19.76073859 403.41362645 13.26021597 406.30441708 6.73974609 409.18066406 C4.46039325 410.19991779 2.18176779 411.22079943 -0.09619141 412.24316406 C-1.88621582 413.04560547 -1.88621582 413.04560547 -3.71240234 413.86425781 C-12.10638427 417.62964426 -20.49556559 421.40572384 -28.88525391 425.18066406 C-29.74723389 425.56843018 -30.60921387 425.95619629 -31.49731445 426.35571289 C-33.17627349 427.11104353 -34.85508994 427.86669121 -36.53375244 428.62268066 C-38.13003598 429.34062406 -39.72714602 430.05673302 -41.32513428 430.77087402 C-44.60997461 432.24182427 -47.86829119 433.73375053 -51.09912109 435.32128906 C-52.0365918 435.78019531 -52.9740625 436.23910156 -53.93994141 436.71191406 C-54.69774902 437.09927734 -55.45555664 437.48664063 -56.23632812 437.88574219 C-63.19310796 440.07681156 -68.42701149 438.44543875 -74.68603516 435.38378906 C-75.42200928 435.03931229 -76.1579834 434.69483551 -76.91625977 434.33992004 C-79.30840742 433.21703266 -81.69019558 432.07373637 -84.07275391 430.93066406 C-85.74988703 430.14037467 -87.42787625 429.35189965 -89.10668945 428.56518555 C-91.63535983 427.37998414 -94.16350216 426.19379941 -96.68904114 425.00193787 C-103.44129315 421.81562036 -110.23762009 418.74816856 -117.07275391 415.74316406 C-124.97016855 412.25928234 -132.85179549 408.74376131 -140.71728516 405.18847656 C-142.0337075 404.59391914 -142.0337075 404.59391914 -143.37672424 403.98735046 C-150.45914185 400.78830411 -150.45914185 400.78830411 -153.92959595 399.21389771 C-154.75067841 398.84142914 -155.57176086 398.46896057 -156.41772461 398.08520508 C-157.22780472 397.71757553 -158.03788483 397.34994598 -158.87251282 396.97117615 C-161.27708789 395.88987861 -163.69181345 394.83405864 -166.10791016 393.77880859 C-169.20188663 392.41788617 -172.18584545 390.94437614 -175.16259766 389.34423828 C-183.15246841 385.17964836 -183.15246841 385.17964836 -191.90136719 385.42749023 C-196.3393951 386.97640858 -200.39462734 389.1845993 -204.51025391 391.43066406 C-206.0438302 392.20753599 -207.58077705 392.97778643 -209.12084961 393.74169922 C-212.22814338 395.2893524 -215.31945428 396.86337238 -218.40136719 398.4609375 C-224.47066828 401.58384856 -230.69613142 404.31792919 -236.94775391 407.05566406 C-239.27936386 408.09535774 -241.61006482 409.13709184 -243.93994141 410.18066406 C-244.54135452 410.44948395 -245.14276764 410.71830383 -245.7624054 410.99526978 C-251.14388154 413.40105509 -256.51880164 415.82132 -261.89306641 418.24316406 C-262.77495132 418.64048737 -263.65683624 419.03781067 -264.56544495 419.44717407 C-268.08347635 421.03229046 -271.6014766 422.61747336 -275.1187439 424.20428467 C-279.13792835 426.01744095 -283.15883303 427.8264355 -287.18457031 429.625 C-290.22467271 430.98420327 -293.25065036 432.36972962 -296.26953125 433.77539062 C-297.68693215 434.4236766 -299.1044089 435.07179677 -300.52197266 435.71972656 C-301.15263138 436.0204306 -301.7832901 436.32113464 -302.43305969 436.63095093 C-306.69310905 438.55620508 -310.10932712 439.07453976 -314.76025391 438.68066406 C-317.19775391 437.30566406 -317.19775391 437.30566406 -318.76025391 434.68066406 C-319.83531593 426.62349012 -317.91027546 418.37207913 -316.41650391 410.47412109 C-316.00768517 408.2919528 -315.62568532 406.10611142 -315.24462891 403.91894531 C-314.98582122 402.51890734 -314.72546006 401.11915545 -314.46337891 399.71972656 C-314.11774902 397.83568115 -314.11774902 397.83568115 -313.76513672 395.91357422 C-312.67062677 392.39231555 -311.63970723 390.92994084 -308.76025391 388.68066406 C-305.82275391 387.68066406 -305.82275391 387.68066406 -302.76025391 387.68066406 C-299.94775391 389.18066406 -299.94775391 389.18066406 -297.76025391 391.68066406 C-296.42977567 397.35307932 -297.07147064 402.02508928 -298.19775391 407.61816406 C-298.34535156 408.39740234 -298.49294922 409.17664063 -298.64501953 409.97949219 C-299.00680875 411.88180322 -299.38213633 413.78153115 -299.76025391 415.68066406 C-291.3986503 412.56903856 -283.26312261 409.17784736 -275.19775391 405.36816406 C-265.26110017 400.72900399 -255.27824844 396.20945344 -245.25167847 391.76828003 C-242.94948639 390.74393492 -240.65236685 389.70891771 -238.35620117 388.67114258 C-231.69540136 385.67214373 -225.05081361 382.73047698 -218.19923401 380.19035339 C-215.46904913 379.17428328 -212.760117 378.10732141 -210.05117798 377.03610229 C-208.19277458 376.32759358 -206.30484632 375.6980923 -204.41723633 375.0715332 C-200.77979082 373.61828724 -198.56700399 372.41856739 -195.76025391 369.68066406 C-195.05833722 366.81059311 -194.69795041 364.48570493 -194.52270508 361.58203125 C-194.45520082 360.78722036 -194.38769655 359.99240948 -194.31814671 359.17351341 C-194.11062258 356.6770773 -193.93537861 354.1795548 -193.76025391 351.68066406 C-193.63503023 350.16218713 -193.50703861 348.64393547 -193.3760376 347.12594604 C-193.05040779 343.29877553 -192.75384809 339.47004257 -192.46818352 335.63969803 C-192.28177876 333.14174946 -192.09125046 330.64414224 -191.89979553 328.14657593 C-191.42668871 321.96485091 -190.96000034 315.78264546 -190.49371338 309.60040283 C-190.09569014 304.32579272 -189.69492996 299.05140525 -189.29034615 293.77729416 C-189.10316095 291.32240104 -188.92003359 288.8672268 -188.73704529 286.41201782 C-188.62251146 284.91382285 -188.50778128 283.41564287 -188.39282227 281.91748047 C-188.24531776 279.96039658 -188.24531776 279.96039658 -188.09483337 277.96377563 C-187.83442861 275.40851452 -187.4895125 273.13182552 -186.76025391 270.68066406 C-209.15830313 282.14892852 -209.15830313 282.14892852 -231.30712891 294.08862305 C-241.32600461 299.59696078 -251.5156583 304.7773752 -261.70829773 309.95504761 C-263.56278865 310.90979282 -265.3986414 311.89526381 -267.23608398 312.88232422 C-270.76025391 314.68066406 -270.76025391 314.68066406 -274.1965332 315.94384766 C-278.48428201 317.73777833 -281.75600496 319.3225958 -283.65563965 323.78311157 C-285.60742433 330.2785471 -286.43651196 336.97414189 -287.32275391 343.68066406 C-287.76979367 346.70210282 -288.2316652 349.72083541 -288.70018005 352.73901367 C-288.98542822 354.60987834 -289.25571087 356.48310797 -289.50843811 358.35864258 C-291.23710701 370.5925425 -291.23710701 370.5925425 -295.57275391 374.18066406 C-298.70013489 374.895494 -300.69451387 374.63870782 -303.76025391 373.68066406 C-306.19775391 371.74316406 -306.19775391 371.74316406 -307.76025391 368.68066406 C-307.85745184 360.46055302 -305.67682885 352.03197927 -304.21582031 343.97875977 C-303.95422531 342.52073608 -303.69294781 341.06265539 -303.43196106 339.60452271 C-302.72698528 335.67225723 -302.01698632 331.74091553 -301.30556917 327.80981088 C-300.86061595 325.34980836 -300.41675747 322.88961087 -299.97327805 320.42934227 C-298.42420756 311.83586949 -296.87100007 303.24315617 -295.31396484 294.65112305 C-293.86534435 286.65670944 -292.42593282 278.66067452 -290.99074996 270.66383868 C-289.75506307 263.78096961 -288.51290175 256.89928933 -287.26573884 250.01849049 C-286.52229023 245.91612518 -285.78145024 241.8133313 -285.04716873 237.70931435 C-284.35690992 233.85260391 -283.65858347 229.99743985 -282.95412254 226.1432991 C-282.6976655 224.73254806 -282.44404729 223.3212774 -282.1935482 221.90945625 C-279.1282533 204.65679099 -279.1282533 204.65679099 -274.55322266 200.83886719 C-273.69341797 200.38447266 -272.83361328 199.93007812 -271.94775391 199.46191406 C-270.96887207 198.93025635 -269.98999023 198.39859863 -268.98144531 197.85083008 C-267.91845215 197.29967529 -266.85545898 196.74852051 -265.76025391 196.18066406 C-263.47622937 194.95051158 -261.19238106 193.72003186 -258.90869141 192.48925781 C-257.71461805 191.85448629 -256.52028057 191.22021135 -255.32568359 190.58642578 C-249.63246261 187.55630038 -244.01494708 184.38916907 -238.38525391 181.24316406 C-236.12267872 179.98585136 -233.85965497 178.72934553 -231.59619141 177.47363281 C-230.47051758 176.8489209 -229.34484375 176.22420898 -228.18505859 175.58056641 C-224.7443554 173.6718444 -221.30310757 171.764107 -217.86181641 169.85644531 C-205.79280474 163.1628589 -193.74339401 156.43769857 -181.73974609 149.62744141 C-180.84803711 149.12164551 -179.95632812 148.61584961 -179.03759766 148.09472656 C-178.25634521 147.65080566 -177.47509277 147.20688477 -176.67016602 146.74951172 C-173.04038033 144.71816802 -170.99173726 144.29156215 -166.76025391 144.68066406 C-163.84446919 145.78679959 -161.1320758 147.21039411 -158.38525391 148.68066406 C-157.28117187 149.25300781 -157.28117187 149.25300781 -156.15478516 149.83691406 C-154.3509305 150.77398141 -152.55478132 151.72585613 -150.76025391 152.68066406 C-151.03699951 152.08342529 -151.31374512 151.48618652 -151.59887695 150.87084961 C-157.65018376 137.69902487 -162.76100853 124.87962318 -165.76025391 110.68066406 C-166.00388672 109.60558594 -166.24751953 108.53050781 -166.49853516 107.42285156 C-171.79526521 79.82220382 -166.03994119 50.96412896 -150.93457031 27.39355469 C-147.32087361 22.122516 -143.06374796 17.39038764 -138.76025391 12.68066406 C-138.09251953 11.93042969 -137.42478516 11.18019531 -136.73681641 10.40722656 C-102.51166737 -26.12848106 -39.44453133 -29.56425067 0 0 Z M-130.16650391 27.30566406 C-135.31365301 33.34498568 -139.28615085 39.56027209 -142.76025391 46.68066406 C-143.21271484 47.5765625 -143.66517578 48.47246094 -144.13134766 49.39550781 C-155.56048365 73.03380985 -153.10908951 98.88091252 -145.57275391 123.24316406 C-138.08706643 144.22577289 -126.60003802 163.28639987 -112.76025391 180.68066406 C-112.02162109 181.61136719 -111.28298828 182.54207031 -110.52197266 183.50097656 C-106.20751589 188.85120102 -101.73341363 194.02611578 -97.09619141 199.09863281 C-95.19351684 201.20175637 -93.33525833 203.33057658 -91.48291016 205.47753906 C-87.7618698 209.73848921 -83.83329776 213.7558249 -79.82275391 217.74316406 C-79.15824219 218.41154297 -78.49373047 219.07992187 -77.80908203 219.76855469 C-75.8127289 221.76103516 -73.79384892 223.7262429 -71.76025391 225.68066406 C-70.69846924 226.71489502 -70.69846924 226.71489502 -69.61523438 227.77001953 C-68.91930176 228.41986816 -68.22336914 229.0697168 -67.50634766 229.73925781 C-66.88300537 230.32892334 -66.25966309 230.91858887 -65.61743164 231.52612305 C-63.83744701 232.88280594 -63.83744701 232.88280594 -61.74072266 232.54711914 C-59.49004763 231.56244882 -58.1036564 230.45366903 -56.32666016 228.75878906 C-55.68398193 228.15172119 -55.04130371 227.54465332 -54.37915039 226.91918945 C-53.70053955 226.26297607 -53.02192871 225.6067627 -52.32275391 224.93066406 C-51.61771729 224.2583374 -50.91268066 223.58601074 -50.1862793 222.89331055 C-48.03406073 220.83269637 -45.8946459 218.75972735 -43.76025391 216.68066406 C-43.1321582 216.06916504 -42.5040625 215.45766602 -41.85693359 214.82763672 C-40.13056762 213.1393731 -38.41167222 211.44405751 -36.69775391 209.74316406 C-36.19896729 209.24913086 -35.70018066 208.75509766 -35.1862793 208.24609375 C-22.38930249 195.39138622 -10.62818256 180.88572144 -0.76025391 165.68066406 C-0.09767578 164.65972656 0.56490234 163.63878906 1.24755859 162.58691406 C18.89251948 134.63176034 32.23326793 102.53203439 26.05224609 68.86816406 C22.2225314 52.1421078 14.68294341 37.44106395 3.23974609 24.68066406 C2.68802734 24.04644531 2.13630859 23.41222656 1.56787109 22.75878906 C-12.04062667 8.07239048 -34.07703943 -2.36846222 -54.03491211 -3.44165039 C-84.30659859 -4.42990645 -109.43256735 4.68682419 -130.16650391 27.30566406 Z M-162.76025391 165.68066406 C-164.27152552 179.34079878 -165.23629797 192.94750317 -165.76025391 206.68066406 C-158.96207727 208.28036412 -152.17913336 209.44968036 -145.26806641 210.44238281 C-144.20030975 210.59729691 -143.1325531 210.752211 -142.03244019 210.91181946 C-139.79223569 211.23544373 -137.55176189 211.55720882 -135.31103516 211.87719727 C-131.87368739 212.36982172 -128.43809642 212.87365155 -125.00244141 213.37792969 C-122.82024806 213.69176515 -120.63795955 214.00493978 -118.45556641 214.31738281 C-116.91341965 214.54538826 -116.91341965 214.54538826 -115.34011841 214.77799988 C-114.38837738 214.91176529 -113.43663635 215.0455307 -112.45605469 215.18334961 C-111.2010466 215.36416328 -111.2010466 215.36416328 -109.92068481 215.54862976 C-107.5764206 215.82689156 -107.5764206 215.82689156 -104.76025391 214.68066406 C-105.61683594 213.78541016 -105.61683594 213.78541016 -106.49072266 212.87207031 C-113.61858609 205.24559639 -119.92640623 197.11651866 -126.15795898 188.74780273 C-126.68671631 188.06564697 -127.21547363 187.38349121 -127.76025391 186.68066406 C-128.50654053 185.6896167 -129.25282715 184.69856934 -130.02172852 183.67749023 C-132.70447306 180.48729488 -135.84854926 178.63371216 -139.55712891 176.81347656 C-140.1913678 176.48902557 -140.82560669 176.16457458 -141.47906494 175.83029175 C-143.48322653 174.80918664 -145.4964124 173.80751764 -147.51025391 172.80566406 C-148.87675324 172.11155887 -150.24264536 171.41625687 -151.60791016 170.71972656 C-157.00618269 167.37397693 -157.00618269 167.37397693 -162.76025391 165.68066406 Z M6.98388672 181.52148438 C3.90857125 184.59850646 1.42942599 187.90916493 -0.76025391 191.68066406 C-0.43025391 192.34066406 -0.10025391 193.00066406 0.23974609 193.68066406 C5.50138213 191.51817611 10.75163404 189.33074089 15.99291992 187.11938477 C17.77776832 186.37054387 19.5655409 185.62863371 21.35620117 184.89379883 C23.92823857 183.83690455 26.48876401 182.75561153 29.04833984 181.66894531 C29.85250839 181.34477127 30.65667694 181.02059723 31.48521423 180.68659973 C35.85029245 178.94704585 35.85029245 178.94704585 38.27905273 175.16967773 C38.22808557 171.94228493 37.80019493 168.85654081 37.23974609 165.68066406 C29.36165675 165.68066406 13.15048899 176.48943014 6.98388672 181.52148438 Z M-186.35009766 170.65332031 C-186.91731033 170.96753433 -187.48452301 171.28174835 -188.06892395 171.60548401 C-189.94744817 172.647387 -191.8225771 173.69525029 -193.69775391 174.74316406 C-195.01232229 175.47384847 -196.32710379 176.20414956 -197.64208984 176.93408203 C-200.35511525 178.44091986 -203.06678083 179.95016295 -205.77734375 181.46142578 C-209.4522255 183.51002787 -213.13101016 185.55147095 -216.81103516 187.59082031 C-229.24959793 194.48624737 -241.66823924 201.41674628 -254.06982422 208.37841797 C-255.05176758 208.92933105 -256.03371094 209.48024414 -257.04541016 210.04785156 C-258.34297241 210.77657471 -258.34297241 210.77657471 -259.66674805 211.52001953 C-261.01615522 212.26813402 -262.38023217 212.99065319 -263.76025391 213.68066406 C-264.48205677 216.01327028 -264.48205677 216.01327028 -264.97900391 218.86035156 C-265.18912109 219.93542969 -265.39923828 221.01050781 -265.61572266 222.11816406 C-265.93476563 223.81972656 -265.93476563 223.81972656 -266.26025391 225.55566406 C-266.47294922 226.65136719 -266.68564453 227.74707031 -266.90478516 228.87597656 C-267.53554595 232.14200179 -268.1486211 235.41101011 -268.76025391 238.68066406 C-269.05802734 240.2144873 -269.05802734 240.2144873 -269.36181641 241.77929688 C-269.54486328 242.73932617 -269.72791016 243.69935547 -269.91650391 244.68847656 C-270.07957031 245.53297363 -270.24263672 246.3774707 -270.41064453 247.24755859 C-270.7714631 249.75867444 -270.82131131 252.14734703 -270.76025391 254.68066406 C-266.62698145 253.39378969 -262.8793089 251.84288527 -259.04150391 249.84472656 C-257.95659668 249.28164795 -256.87168945 248.71856934 -255.75390625 248.13842773 C-254.02454834 247.23120972 -254.02454834 247.23120972 -252.26025391 246.30566406 C-251.03979134 245.66920302 -249.81924985 245.03289328 -248.59863281 244.39672852 C-240.53629165 240.18456091 -232.5429915 235.85386346 -224.57983398 231.45727539 C-214.31840959 225.82745214 -203.88649948 220.52431988 -193.46289062 215.20288086 C-192.76137375 214.84398773 -192.05985687 214.4850946 -191.33708191 214.11532593 C-190.0066927 213.43495508 -188.67543675 212.75627571 -187.34321594 212.07949829 C-184.35574936 210.66733105 -184.35574936 210.66733105 -181.76025391 208.68066406 C-181.45683442 205.65580227 -181.2119333 202.64623084 -181.00634766 199.61425781 C-180.94117447 198.70563492 -180.87600128 197.79701202 -180.80885315 196.8608551 C-180.60084286 193.94691203 -180.3992345 191.03256521 -180.19775391 188.11816406 C-180.05820008 186.14743114 -179.91823162 184.17672754 -179.77783203 182.20605469 C-179.43381983 177.36458538 -179.09555008 172.52274449 -178.76025391 167.68066406 C-181.7874646 167.68066406 -183.71588906 169.1869024 -186.35009766 170.65332031 Z M53.23974609 167.68066406 C53.56974609 169.00066406 53.89974609 170.32066406 54.23974609 171.68066406 C55.88974609 171.35066406 57.53974609 171.02066406 59.23974609 170.68066406 C56.56726975 168.33778988 56.56726975 168.33778988 53.23974609 167.68066406 Z M65.36474609 185.18066406 C62.02349609 186.00566406 58.68224609 186.83066406 55.23974609 187.68066406 C55.56974609 194.61066406 55.89974609 201.54066406 56.23974609 208.68066406 C67.13148039 207.0451066 77.77296096 204.5685385 88.48974609 202.05566406 C90.3138851 201.63084236 92.13810331 201.20636057 93.96240234 200.78222656 C98.38910584 199.75228658 102.81471412 198.71776101 107.23974609 197.68066406 C102.53843983 193.79659227 97.6187884 190.88128696 92.30224609 187.93066406 C91.42117188 187.4240625 90.54009766 186.91746094 89.63232422 186.39550781 C80.70348378 181.43281148 74.9680803 182.77426013 65.36474609 185.18066406 Z M34.32861328 195.3737793 C33.4955365 195.74514511 32.66245972 196.11651093 31.80413818 196.49913025 C30.89085754 196.90837234 29.9775769 197.31761444 29.03662109 197.73925781 C27.6152182 198.37312157 27.6152182 198.37312157 26.1651001 199.01979065 C23.10586349 200.38416362 20.04769946 201.75091764 16.98974609 203.11816406 C14.01559085 204.44763522 11.041174 205.77650123 8.06582642 207.103302 C6.08281985 207.98792696 4.10070582 208.8745553 2.11947632 209.76315308 C-2.7729853 211.94826697 -7.67782473 214.0741846 -12.64453125 216.08544922 C-13.5860907 216.47152847 -14.52765015 216.85760773 -15.4977417 217.25538635 C-17.25483644 217.97173027 -19.01770901 218.67415255 -20.78741455 219.35874939 C-29.42874819 222.90040191 -34.97637699 229.10197865 -41.10986328 235.93164062 C-44.92316846 239.97284156 -49.38560771 243.274319 -53.76025391 246.68066406 C-55.17602867 247.86490732 -55.17602867 247.86490732 -54.82275391 251.24316406 C-54.80212891 252.37753906 -54.78150391 253.51191406 -54.76025391 254.68066406 C-48.39896775 252.68518663 -42.31787287 250.29920943 -36.22900391 247.59082031 C-35.35304565 247.20502304 -34.4770874 246.81922577 -33.57458496 246.42173767 C-30.80145987 245.1993148 -28.03083605 243.97133784 -25.26025391 242.74316406 C-23.4023431 241.92313521 -21.54427146 241.10347068 -19.68603516 240.28417969 C-16.25731575 238.77150375 -12.82936829 237.25711694 -9.40283203 235.73950195 C-8.6358046 235.40111298 -7.86877716 235.062724 -7.07850647 234.71408081 C-5.48407634 234.00332529 -3.89481408 233.28089863 -2.31004333 232.54885864 C-1.52138382 232.18718597 -0.7327243 231.82551331 0.07983398 231.45288086 C0.78169327 231.12644089 1.48355255 230.80000092 2.2066803 230.46366882 C5.89358827 229.04371159 8.28774047 229.09635154 12.23974609 229.68066406 C15.05340761 231.09588401 17.3784583 232.93251107 19.80224609 234.93066406 C20.47900391 235.46336914 21.15576172 235.99607422 21.85302734 236.54492188 C23.99678123 238.23908293 26.11802677 239.95902388 28.23974609 241.68066406 C29.69536939 242.83868606 31.15238806 243.99495638 32.61083984 245.14941406 C36.17027931 247.97314506 39.70978736 250.82018027 43.23974609 253.68066406 C44.20936285 250.50930862 44.26455001 247.92072977 44.00195312 244.62426758 C43.92502228 243.61964981 43.84809143 242.61503204 43.76882935 241.57997131 C43.67931 240.50073898 43.58979065 239.42150665 43.49755859 238.30957031 C43.40973114 237.19509018 43.32190369 236.08061005 43.23141479 234.93235779 C43.04440346 232.5759964 42.85422906 230.21988423 42.66113281 227.86401367 C42.3662163 224.26112508 42.08144722 220.65754472 41.79833984 217.05371094 C41.61534479 214.76394947 41.43177029 212.47423422 41.24755859 210.18457031 C41.11935226 208.56875816 41.11935226 208.56875816 40.98855591 206.92030334 C40.90532074 205.91253342 40.82208557 204.90476349 40.73632812 203.86645508 C40.66447296 202.98361343 40.5926178 202.10077179 40.51858521 201.19117737 C40.23581116 198.64523608 39.77921789 196.18369453 39.23974609 193.68066406 C37.46536746 193.68066406 35.92757964 194.65878658 34.32861328 195.3737793 Z M-166.76025391 222.68066406 C-171.1184033 227.03881346 -170.7919505 239.50464274 -170.84619141 245.57128906 C-170.45401582 260.54297852 -159.63910802 272.28141296 -150.98223877 283.69273376 C-145.22880763 291.28115968 -140.02942102 299.18373201 -134.8626709 307.17849731 C-132.27903727 311.16684732 -129.66192642 315.13313796 -127.04931641 319.10253906 C-126.00124544 320.69809809 -124.95339395 322.29380131 -123.90576172 323.88964844 C-123.38679321 324.68008545 -122.86782471 325.47052246 -122.33312988 326.28491211 C-120.76025391 328.68066406 -120.76025391 328.68066406 -119.18737793 331.07641602 C-107.45356969 348.94809072 -95.70937991 366.81294867 -83.87771606 384.62005615 C-82.80435096 386.23635149 -81.73213507 387.85341064 -80.66110229 389.47125244 C-79.18710471 391.696963 -77.70871777 393.91968871 -76.22900391 396.14160156 C-75.78863297 396.80830872 -75.34826202 397.47501587 -74.89454651 398.16192627 C-73.87598446 399.68601301 -72.822125 401.18642887 -71.76025391 402.68066406 C-71.43025391 402.68066406 -71.10025391 402.68066406 -70.76025391 402.68066406 C-69.27122055 382.44390783 -68.35983954 367.17058834 -81.97753906 350.89892578 C-84.90484084 347.25643551 -87.268115 343.28940002 -89.69775391 339.30566406 C-90.68355176 337.73379137 -91.67186539 336.16349383 -92.66259766 334.59472656 C-93.16388184 333.7984082 -93.66516602 333.00208984 -94.18164062 332.18164062 C-97.02766395 327.67272275 -99.89493006 323.1773316 -102.76025391 318.68066406 C-107.59187674 311.09593282 -112.40827054 303.50193056 -117.20141602 295.89282227 C-119.95597687 291.52372516 -122.7269393 287.16573068 -125.51416016 282.81738281 C-126.14773437 281.82738281 -126.78130859 280.83738281 -127.43408203 279.81738281 C-128.66336563 277.89781897 -129.89501498 275.97976741 -131.12939453 274.06347656 C-138.83741015 262.01803903 -138.83741015 262.01803903 -138.57275391 257.43066406 C-137.76025391 254.68066406 -137.76025391 254.68066406 -135.76025391 252.68066406 C-122.6055336 250.98292518 -108.42279744 254.0681068 -95.38525391 255.68066406 C-92.99211658 255.9704859 -90.59888793 256.25955471 -88.20556641 256.54785156 C-82.38938049 257.25010738 -76.57439228 257.9616633 -70.76025391 258.68066406 C-70.70491982 256.74421751 -70.6652555 254.80731838 -70.63232422 252.87036133 C-70.60857727 251.79182388 -70.58483032 250.71328644 -70.56036377 249.60206604 C-70.52902965 246.47656949 -70.52902965 246.47656949 -72.80712891 243.64550781 C-74.14517578 242.64197266 -74.14517578 242.64197266 -75.51025391 241.61816406 C-76.39197266 240.9259375 -77.27369141 240.23371094 -78.18212891 239.52050781 C-79.03291016 238.91335938 -79.88369141 238.30621094 -80.76025391 237.68066406 C-81.37433105 237.16867966 -81.9884082 236.65669525 -82.62109375 236.12919617 C-85.03626937 234.49376022 -86.69415335 234.09182775 -89.56494141 233.66430664 C-90.52513184 233.51571701 -91.48532227 233.36712738 -92.47460938 233.21403503 C-93.51762207 233.06509293 -94.56063477 232.91615082 -95.63525391 232.76269531 C-96.73369629 232.59679398 -97.83213867 232.43089264 -98.96386719 232.25996399 C-102.56090912 231.72083307 -106.16027131 231.1997687 -109.76025391 230.68066406 C-112.21862698 230.31944356 -114.67696009 229.95795095 -117.13525391 229.59619141 C-123.40228078 228.68016186 -129.6723906 227.78768119 -135.94433594 226.90600586 C-139.84084156 226.35680548 -143.73606745 225.79902901 -147.63134766 225.24121094 C-150.11174321 224.89108266 -152.59220924 224.54145311 -155.07275391 224.19238281 C-156.23597168 224.02477951 -157.39918945 223.85717621 -158.59765625 223.68449402 C-160.18827881 223.46349785 -160.18827881 223.46349785 -161.81103516 223.23803711 C-162.7460083 223.10576218 -163.68098145 222.97348724 -164.64428711 222.83720398 C-165.34255615 222.78554581 -166.0408252 222.73388763 -166.76025391 222.68066406 Z M-189.96337891 230.43457031 C-191.62989502 231.33405396 -191.62989502 231.33405396 -193.33007812 232.25170898 C-193.92850525 232.57561615 -194.52693237 232.89952332 -195.14349365 233.23324585 C-205.91554996 239.06093359 -216.74168314 244.7711993 -227.63525391 250.36816406 C-238.94020831 256.1806509 -250.17511548 262.11239828 -261.265625 268.32641602 C-263.06884873 269.30532403 -264.89877508 270.23557432 -266.74316406 271.13452148 C-272.55101166 273.87606032 -272.55101166 273.87606032 -276.45556641 278.72363281 C-276.59736328 279.76132812 -276.73916016 280.79902344 -276.88525391 281.86816406 C-277.05927734 282.98964844 -277.23330078 284.11113281 -277.41259766 285.26660156 C-277.52732422 286.39324219 -277.64205078 287.51988281 -277.76025391 288.68066406 C-277.88529297 289.76605469 -278.01033203 290.85144531 -278.13916016 291.96972656 C-278.40153066 294.5402933 -278.61036033 297.10146076 -278.76025391 299.68066406 C-274.06092832 298.26470024 -269.84881048 296.29260413 -265.54541016 293.96972656 C-264.86157761 293.60556641 -264.17774506 293.24140625 -263.47319031 292.86621094 C-261.25413615 291.6835092 -259.03848291 290.49458164 -256.82275391 289.30566406 C-254.50752721 288.06978469 -252.19143755 286.8355337 -249.87527466 285.60140991 C-248.33388057 284.78000925 -246.79276253 283.95809036 -245.25192261 283.13565063 C-239.02732735 279.81499747 -232.77497107 276.54997176 -226.51025391 273.30566406 C-217.98105717 268.88010853 -209.52817123 264.32532561 -201.11279297 259.68701172 C-200.26555664 259.22085449 -199.41832031 258.75469727 -198.54541016 258.27441406 C-197.74119629 257.83097656 -196.93698242 257.38753906 -196.10839844 256.93066406 C-193.83329723 255.71954759 -191.52685867 254.61864441 -189.19384766 253.52441406 C-185.50132281 252.04754511 -185.50132281 252.04754511 -184.76025391 248.68066406 C-184.61310192 247.05499327 -184.51303524 245.42479549 -184.44384766 243.79394531 C-184.40195313 242.85615234 -184.36005859 241.91835938 -184.31689453 240.95214844 C-184.27757812 239.97568359 -184.23826172 238.99921875 -184.19775391 237.99316406 C-184.13297852 236.51106445 -184.13297852 236.51106445 -184.06689453 234.99902344 C-183.96083736 232.5597086 -183.85877677 230.12029293 -183.76025391 227.68066406 C-185.89320123 227.68066406 -188.16835505 229.46160384 -189.96337891 230.43457031 Z M59.23974609 242.68066406 C59.38159442 245.70173159 59.52810276 248.72245504 59.67724609 251.74316406 C59.7165625 252.59072266 59.75587891 253.43828125 59.79638672 254.31152344 C59.91978594 256.7700157 60.07675752 259.22452396 60.23974609 261.68066406 C60.30291016 262.90140625 60.36607422 264.12214844 60.43115234 265.37988281 C61.51403327 269.80033875 63.68343527 272.15840559 66.73974609 275.43066406 C67.8436705 276.66278825 68.94652608 277.89587084 70.04833984 279.12988281 C70.59345215 279.7323584 71.13856445 280.33483398 71.70019531 280.95556641 C73.81270869 283.32268019 75.81039538 285.77413677 77.80224609 288.24316406 C81.06753176 292.26424822 84.385424 296.23402849 87.73974609 300.18066406 C93.38841034 306.83092696 98.90798297 313.58187633 104.41162109 320.35253906 C108.47380691 325.33663939 112.57756552 330.28007862 116.73974609 335.18066406 C122.38815581 341.83114786 127.90797758 348.5818697 133.41162109 355.35253906 C137.47381174 360.33664531 141.57779306 365.27988147 145.73974609 370.18066406 C154.48703972 380.48857156 162.91914583 391.02718521 171.23974609 401.68066406 C173.00237874 396.39276611 171.20190972 390.78497497 170.24609375 385.38671875 C169.99477219 383.93285089 169.75806847 382.47636919 169.53710938 381.01757812 C167.90704084 370.26647947 165.09430064 363.62107031 157.23974609 355.68066406 C156.31892186 354.65312473 155.40129885 353.62268716 154.48974609 352.58691406 C153.74724609 351.79285156 153.00474609 350.99878906 152.23974609 350.18066406 C148.12595701 345.71081286 144.26887313 341.09021513 140.45458984 336.36425781 C138.28341783 333.73357849 136.03733252 331.20123982 133.73974609 328.68066406 C130.64419413 325.28467725 127.68823402 321.81894876 124.80224609 318.24316406 C121.72638021 314.43978904 118.55221443 310.77983755 115.23974609 307.18066406 C111.12595701 302.71081286 107.26887313 298.09021513 103.45458984 293.36425781 C101.28341783 290.73357849 99.03733252 288.20123982 96.73974609 285.68066406 C93.64419413 282.28467725 90.68823402 278.81894876 87.80224609 275.24316406 C83.94786926 270.47714331 79.87989423 265.96110481 75.72802734 261.45410156 C72.45830756 257.80967292 69.39277724 254.01937113 66.34521484 250.18847656 C64.11205204 247.52856836 61.72687448 245.10268438 59.23974609 242.68066406 Z M-2.25634766 249.33691406 C-3.1184938 249.71746948 -3.98063995 250.0980249 -4.86891174 250.4901123 C-7.64673765 251.71683612 -10.42236326 252.94844168 -13.19775391 254.18066406 C-16.79964477 255.77662252 -20.40261935 257.3701092 -24.00634766 258.96191406 C-25.33803482 259.55093506 -25.33803482 259.55093506 -26.69662476 260.15185547 C-33.76519968 263.26801488 -40.87388828 266.28197373 -48.01353455 269.23156738 C-51.64971779 270.52923048 -51.64971779 270.52923048 -54.76025391 272.68066406 C-54.97262175 275.42328071 -55.119405 278.14285597 -55.22290039 280.89038086 C-55.25838486 281.75251694 -55.29386932 282.61465302 -55.33042908 283.50291443 C-55.64380256 291.53578079 -55.83236204 299.57143298 -55.98225307 307.60885906 C-56.08513895 312.99995047 -56.2287375 318.38267682 -56.47485352 323.76928711 C-58.76126298 350.42746866 -58.76126298 350.42746866 -48.59228992 373.87359715 C-44.59436678 378.00934493 -40.08048174 381.44253846 -35.36857605 384.72940063 C-31.56307975 387.57625979 -28.72299231 390.99978457 -25.76025391 394.68066406 C-24.46613388 396.03184406 -23.1592793 397.3714147 -21.82275391 398.68066406 C-20.80192057 399.68066406 -19.78108724 400.68066406 -18.76025391 401.68066406 C-12.42731341 399.70706823 -6.42147894 397.31549018 -0.39697266 394.54785156 C0.91112617 393.95364914 0.91112617 393.95364914 2.24565125 393.34744263 C5.01645812 392.08773089 7.78441553 390.82189989 10.55224609 389.55566406 C13.26999531 388.31751617 15.98831752 387.08063911 18.70700073 385.84454346 C20.50846786 385.02367055 22.30854882 384.19974859 24.10720825 383.3727417 C28.71768317 381.25709352 33.34279411 379.20007328 38.01855469 377.23242188 C39.40750191 376.63797775 39.40750191 376.63797775 40.82450867 376.03152466 C42.59096287 375.27780701 44.36393587 374.53913593 46.14387512 373.81784058 C46.93114487 373.47882721 47.71841461 373.13981384 48.52954102 372.79052734 C49.57146858 372.3585051 49.57146858 372.3585051 50.63444519 371.91775513 C52.41938299 370.77253673 52.41938299 370.77253673 52.98883057 368.58773804 C53.32260272 364.72069821 53.17603509 360.92469721 52.96459961 357.05761719 C52.92217133 356.19994751 52.87974304 355.34227783 52.83602905 354.45861816 C52.43125436 346.54844169 51.93517497 338.64313565 51.41281223 330.73993683 C51.0631975 325.44086276 50.74256445 320.14364777 50.49243164 314.83886719 C50.24914118 309.69215264 49.93115012 304.55492463 49.56199455 299.41575623 C49.43455085 297.46869776 49.33272234 295.51976907 49.25836372 293.56996155 C48.84933609 281.52618402 48.84933609 281.52618402 42.64562988 271.63342285 C39.31505248 268.74638545 35.79403432 266.23678024 32.08206367 263.86578369 C29.74470341 262.36221473 27.56900268 260.68242478 25.38818359 258.96191406 C24.13302762 258.03123729 22.87539813 257.10388247 21.61474609 256.18066406 C17.95751489 253.48741131 14.34622994 250.80243614 10.90380859 247.83691406 C6.18341731 244.01630411 2.74975737 247.10519057 -2.25634766 249.33691406 Z M-114.76025391 269.68066406 C-110.58467396 277.83802067 -105.75137093 285.44683432 -100.74072266 293.10644531 C-97.76100275 297.66337694 -94.84786985 302.26028242 -91.94775391 306.86816406 C-90.95562045 308.44111482 -89.96343167 310.01403068 -88.97119141 311.58691406 C-87.27374618 314.27889768 -85.57726023 316.97147461 -83.88232422 319.66503906 C-81.94919602 322.73490449 -80.01135327 325.80175148 -78.07275391 328.86816406 C-77.15369263 330.33129028 -77.15369263 330.33129028 -76.21606445 331.82397461 C-75.64927979 332.71898682 -75.08249512 333.61399902 -74.49853516 334.53613281 C-73.99362549 335.33688232 -73.48871582 336.13763184 -72.96850586 336.96264648 C-72.56978271 337.52959229 -72.17105957 338.09653809 -71.76025391 338.68066406 C-71.43025391 338.68066406 -71.10025391 338.68066406 -70.76025391 338.68066406 C-70.76025391 317.56066406 -70.76025391 296.44066406 -70.76025391 274.68066406 C-78.69611629 273.23777999 -86.46251472 272.00363916 -94.44775391 271.05566406 C-95.52347656 270.92160156 -96.59919922 270.78753906 -97.70751953 270.64941406 C-103.43850343 269.96155562 -108.9887315 269.527129 -114.76025391 269.68066406 Z M-171.76025391 280.68066406 C-174.55323605 310.3126601 -176.65780541 339.99298996 -178.76025391 369.68066406 C-167.32199838 375.52365056 -155.73821683 380.94662374 -144.01025391 386.18066406 C-142.2790253 386.95630014 -140.54790746 387.73218348 -138.81689453 388.50830078 C-133.46731566 390.90500524 -128.11436783 393.29411024 -122.76025391 395.68066406 C-121.43054565 396.27337097 -121.43054565 396.27337097 -120.07397461 396.87805176 C-108.97465478 401.82410183 -97.86984901 406.75773997 -86.76025391 411.68066406 C-86.76025391 407.25390828 -89.30862354 404.43717986 -91.69775391 400.86816406 C-92.26349121 400.01053467 -92.82922852 399.15290527 -93.41210938 398.26928711 C-94.74502124 396.24935498 -96.08089359 394.23137479 -97.41894531 392.21484375 C-100.03803601 388.26590522 -102.63955888 384.30548792 -105.24072266 380.34472656 C-113.47325777 367.81225752 -121.72282638 355.29101089 -129.97192383 342.7694397 C-131.71070024 340.13004267 -133.44934865 337.49056135 -135.18798828 334.85107422 C-137.46993707 331.38680904 -139.75257808 327.92300134 -142.03564453 324.45947266 C-147.25828641 316.53414973 -152.4707558 308.60260646 -157.65087891 300.64941406 C-158.55077495 299.269283 -159.4506771 297.88915592 -160.35058594 296.5090332 C-162.00136256 293.97691505 -163.64751463 291.44187413 -165.29101562 288.9050293 C-166.36246826 287.26062866 -166.36246826 287.26062866 -167.45556641 285.58300781 C-168.38393311 284.15202759 -168.38393311 284.15202759 -169.33105469 282.69213867 C-169.80269043 282.02835205 -170.27432617 281.36456543 -170.76025391 280.68066406 C-171.09025391 280.68066406 -171.42025391 280.68066406 -171.76025391 280.68066406 Z M63.23974609 296.68066406 C64.03801008 307.96034222 64.84207928 319.23957942 65.65531921 330.51818848 C66.05181328 336.02741908 66.43739851 341.53722504 66.81396484 347.04785156 C66.97643945 349.34214265 67.13917366 351.63641539 67.30224609 353.93066406 C67.36911621 354.95595215 67.43598633 355.98124023 67.50488281 357.03759766 C67.60760498 358.4464624 67.60760498 358.4464624 67.71240234 359.88378906 C67.76662354 360.67430664 67.82084473 361.46482422 67.87670898 362.27929688 C68.35684619 365.45524146 68.79188692 367.77247864 70.23974609 370.68066406 C72.74859388 372.52264705 75.49757941 373.65825165 78.35693359 374.86035156 C79.18962769 375.23060959 80.02232178 375.60086761 80.88024902 375.98234558 C83.61672192 377.19355706 86.36521647 378.37443108 89.11474609 379.55566406 C91.00838057 380.3875359 92.90111485 381.22145973 94.79296875 382.05737305 C98.6780785 383.77042673 102.56797885 385.47180346 106.46240234 387.16357422 C114.41957757 390.62326632 122.34096196 394.16279706 130.26519775 397.69708252 C132.58061666 398.72796873 134.89782249 399.75471237 137.21582031 400.77978516 C137.93322388 401.09724197 138.65062744 401.41469879 139.38977051 401.74177551 C140.71634838 402.3285228 142.04322896 402.9145864 143.3704834 403.49980164 C145.79130541 404.57137334 148.16482827 405.6387405 150.4765625 406.93237305 C152.42205693 407.98751616 152.42205693 407.98751616 155.23974609 406.68066406 C140.27264993 388.3425031 140.27264993 388.3425031 125.06567383 370.20361328 C121.57557713 366.09209815 118.1503535 361.93165097 114.74365234 357.75097656 C106.93309345 348.17359857 99.08083651 338.63313449 91.07666016 329.21679688 C86.72794412 324.09440267 82.47933298 318.89339456 78.23974609 313.68066406 C75.91388891 310.83244223 73.58614678 307.98579987 71.25537109 305.14160156 C70.03329305 303.64952953 68.81379891 302.1553292 67.59912109 300.65722656 C66.50135427 299.31340855 65.37483426 297.99310976 64.23974609 296.68066406 C63.90974609 296.68066406 63.57974609 296.68066406 63.23974609 296.68066406 Z M159.23974609 332.68066406 C160.23974609 334.68066406 160.23974609 334.68066406 160.23974609 334.68066406 Z M-54.76025391 387.68066406 C-54.76025391 397.58066406 -54.76025391 407.48066406 -54.76025391 417.68066406 C-51.24256313 416.97712591 -48.90122005 416.45101478 -45.77197266 415.05175781 C-45.06621094 414.73916016 -44.36044922 414.4265625 -43.63330078 414.10449219 C-42.91207031 413.77900391 -42.19083984 413.45351563 -41.44775391 413.11816406 C-40.7071875 412.78880859 -39.96662109 412.45945312 -39.20361328 412.12011719 C-37.38713828 411.31149283 -35.5734146 410.4966929 -33.76025391 409.68066406 C-38.07675881 404.5817512 -42.51485787 399.62696644 -47.07275391 394.74316406 C-47.70503906 394.05931641 -48.33732422 393.37546875 -48.98876953 392.67089844 C-49.59011719 392.02572266 -50.19146484 391.38054687 -50.81103516 390.71582031 C-51.3541333 390.13195557 -51.89723145 389.54809082 -52.45678711 388.9465332 C-53.57698522 387.5645499 -53.57698522 387.5645499 -54.76025391 387.68066406 Z "
     fill="#000000"
     transform="translate(318.76025390625,46.3193359375)"
     id="path1"
     style="fill:#6f543c;fill-opacity:1" />
  <path
     d="M0 0 C0.74765625 0.42152344 1.4953125 0.84304687 2.265625 1.27734375 C12.72312877 7.69768195 19.15635519 16.72939925 23.109375 28.2265625 C26.23812058 41.48256352 24.48328561 54.5531828 17.625 66.25 C10.074157 77.46185779 1.02682522 83.39646234 -11.79296875 87.5859375 C-24.84115223 90.03391529 -38.19576502 87.85382514 -49.19921875 80.3359375 C-50.09060547 79.67464844 -50.09060547 79.67464844 -51 79 C-51.90685547 78.33871094 -51.90685547 78.33871094 -52.83203125 77.6640625 C-61.56106376 70.77972749 -65.5688531 61.29344069 -69 51 C-70.35956633 34.74906247 -68.18264495 21.94943233 -57.45703125 9.16015625 C-54.69738437 6.48929157 -53.16780863 6 -49.3125 6 C-44.59967974 7.42273819 -44.59967974 7.42273819 -43 10 C-41.82572745 13.92558746 -41.76323031 15.51301445 -43.58203125 19.25390625 C-44.31808594 20.34574219 -45.05414063 21.43757813 -45.8125 22.5625 C-51.64586531 31.32803477 -52.93269221 37.44100299 -52 48 C-49.74838225 57.11600917 -45.09422163 63.03436039 -37.16015625 67.921875 C-29.57559329 71.70729883 -21.3636599 72.35742419 -13.14453125 70.27734375 C-4.61202995 67.08895068 0.91478738 62.18522673 5 54 C8.07376775 46.12212671 8.30341313 37.60492577 5.375 29.625 C0.944256 20.18293176 -5.26044089 15.70175125 -15 12 C-17.89854843 11.36445009 -20.77521809 10.90738932 -23.7109375 10.484375 C-26 10 -26 10 -28.625 8.125 C-30.05581466 5.91374098 -30.84067166 4.62891754 -31 2 C-30.05219877 -1.06212707 -29.27795022 -2.72204978 -27 -5 C-18.81240622 -8.20384105 -7.28063085 -4.14667509 0 0 Z "
     fill="#000000"
     transform="translate(279,91)"
     id="path2"
     style="fill:#6c5353;fill-opacity:1;stroke:#7f5539;stroke-opacity:1" />
</svg>
